<?xml version="1.0" encoding="utf-8"?>
<?xml-stylesheet type="text/xsl" href="rss1.xsl"?>
<rss version="2.0" xmlns:atom="http://www.w3.org/2005/Atom" xmlns:content="http://purl.org/rss/1.0/modules/content/" xmlns:dc="http://purl.org/dc/elements/1.1/" xmlns:media="http://search.yahoo.com/mrss/">
<channel>
 <title>Getty</title>
 <link>http://www.gettyimg.com/</link>
 <atom:link href="http://www.gettyimg.com/" rel="self" type="application/rss+xml" />

 
                <item>
                <title><![CDATA[【Requests】[REQ AUD] - Whitney Houston Discography in iTunes Plus M4A]]></title>
                <link><![CDATA[https://sharemania.us/threads/whitney-houston-discography-in-itunes-plus-m4a.222809/]]></link>
                <description><![CDATA[<article>
<blockquote class="messageText SelectQuoteContainer ugc baseHtml">
Does anyone have it?
<div class="messageTextEndMarker">&nbsp;</div>
</blockquote>
</article>]]></description>
                <author><![CDATA[Mohammed]]></author>
                </item>

                
                <item>
                <title><![CDATA[【HD Live Performances】WEB-RiP - 2023 BangBangCon - 2023-06-03 1080p Weverse WEB-RiP]]></title>
                <link><![CDATA[https://sharemania.us/threads/2023-bangbangcon-2023-06-03-1080p-weverse-web-rip.222810/]]></link>
                <description><![CDATA[<article>
<blockquote class="messageText SelectQuoteContainer ugc baseHtml">
<img src="https://images2.imgbox.com/58/ff/u9Pjssd8_o.jpg" class="bbCodeImage LbImage" alt="[​IMG]" data-url="https://images2.imgbox.com/58/ff/u9Pjssd8_o.jpg" style=""> <br>
<img src="https://images2.imgbox.com/1c/01/g4QRCtsc_o.jpg" class="bbCodeImage LbImage" alt="[​IMG]" data-url="https://images2.imgbox.com/1c/01/g4QRCtsc_o.jpg" style=""> <br>
<img src="https://images2.imgbox.com/26/05/dyN4RKqb_o.jpg" class="bbCodeImage LbImage" alt="[​IMG]" data-url="https://images2.imgbox.com/26/05/dyN4RKqb_o.jpg" style=""> <br>
<br>
BTS celebrates its 10th anniversary by broadcasting their pay-per-view concerts free for anyone on Weverse and YouTube. It's split between 2-time brackets in one day, and there were 3 concerts in total.<br>
<b><br>
2023-06-03 12 PM (KST):</b><br>
<b>5th Muster [Magic Shop] in Seoul</b><br>
<div class="ToggleTriggerAnchor bbCodeSpoilerContainer">
<button type="button" class="button bbCodeSpoilerButton ToggleTrigger Tooltip JsOnly" data-target="> .SpoilerTarget"><span>Spoiler: <span class="SpoilerTitle">MediaInfo</span></span></button>
<div class="SpoilerTarget bbCodeSpoilerText">General<br>
Format : MPEG-4<br>
Format profile : Base Media<br>
Codec ID : isom (isom/iso2/avc1/mp41)<br>
File size : 1.86 GiB<br>
Duration : 2 h 36 min<br>
Overall bit rate : 1 706 kb/s<br>
Frame rate : 30.000 FPS<br>
Description : Packed by Bilibili XCoder v2.0.2<br>
Writing application : Lavf59.34.102<br>
<br>
Video<br>
ID : 1<br>
Format : AVC<br>
Format/Info : Advanced Video Codec<br>
Format profile : High@L5<br>
Format settings : CABAC / 6 Ref Frames<br>
Format settings, CABAC : Yes<br>
Format settings, Reference : 6 frames<br>
Codec ID : avc1<br>
Codec ID/Info : Advanced Video Coding<br>
Duration : 2 h 36 min<br>
Bit rate : 1 577 kb/s<br>
Width : 1 920 pixels<br>
Height : 1 080 pixels<br>
Display aspect ratio : 16:9<br>
Frame rate mode : Variable<br>
Frame rate : 30.000 FPS<br>
Minimum frame rate : 29.412 FPS<br>
Maximum frame rate : 30.303 FPS<br>
Color space : YUV<br>
Chroma subsampling : 4:2:0<br>
Bit depth : 8 bits<br>
Scan type : Progressive<br>
Bits/(Pixel*Frame) : 0.025<br>
Stream size : 1.72 GiB (92%)<br>
Color range : Limited<br>
Color primaries : BT.709<br>
Transfer characteristics : BT.709<br>
Matrix coefficients : BT.709<br>
Codec configuration box : avcC<br>
<br>
Audio<br>
ID : 2<br>
Format : AAC LC<br>
Format/Info : Advanced Audio Codec Low Complexity<br>
Codec ID : mp4a-40-2<br>
Duration : 2 h 36 min<br>
Bit rate mode : Constant<br>
Bit rate : 119 kb/s<br>
Channel(s) : 2 channels<br>
Channel layout : L R<br>
Sampling rate : 44.1 kHz<br>
Frame rate : 43.066 FPS (1024 SPF)<br>
Compression mode : Lossy<br>
Stream size : 133 MiB (7%)<br>
Default : Yes<br>
Alternate group : 1</div>
</div>
<div class="bbCodeBlock bbCodeVfcHH HiddenContent">
<div class="attribution type">Hidden Content:</div>
<blockquote>You must either reply or click 'Like' to see the hidden information contained here.</blockquote>
</div><b> 2021 Muster Sowoozoo </b><br>
<div class="ToggleTriggerAnchor bbCodeSpoilerContainer">
<button type="button" class="button bbCodeSpoilerButton ToggleTrigger Tooltip JsOnly" data-target="> .SpoilerTarget"><span>Spoiler: <span class="SpoilerTitle">MediaInfo</span></span></button>
<div class="SpoilerTarget bbCodeSpoilerText">General<br>
Complete name : E:\Charles' Apps\yt-dlp-gui\2023 Bang Bang Con - 2021 Muster Sowoozoo.mp4<br>
Format : MPEG-4<br>
Format profile : Base Media<br>
Codec ID : isom (isom/iso2/avc1/mp41)<br>
File size : 1.66 GiB<br>
Duration : 1 h 56 min<br>
Overall bit rate : 2 046 kb/s<br>
Frame rate : 30.000 FPS<br>
Description : Packed by Bilibili XCoder v2.0.2<br>
Writing application : Lavf59.34.102<br>
<br>
Video<br>
ID : 1<br>
Format : AVC<br>
Format/Info : Advanced Video Codec<br>
Format profile : High@L5<br>
Format settings : CABAC / 6 Ref Frames<br>
Format settings, CABAC : Yes<br>
Format settings, Reference : 6 frames<br>
Codec ID : avc1<br>
Codec ID/Info : Advanced Video Coding<br>
Duration : 1 h 56 min<br>
Bit rate : 1 913 kb/s<br>
Width : 1 920 pixels<br>
Height : 1 080 pixels<br>
Display aspect ratio : 16:9<br>
Frame rate mode : Variable<br>
Frame rate : 30.000 FPS<br>
Minimum frame rate : 29.412 FPS<br>
Maximum frame rate : 30.303 FPS<br>
Color space : YUV<br>
Chroma subsampling : 4:2:0<br>
Bit depth : 8 bits<br>
Scan type : Progressive<br>
Bits/(Pixel*Frame) : 0.031<br>
Stream size : 1.55 GiB (94%)<br>
Color range : Limited<br>
Color primaries : BT.709<br>
Transfer characteristics : BT.709<br>
Matrix coefficients : BT.709<br>
Codec configuration box : avcC<br>
<br>
Audio<br>
ID : 2<br>
Format : AAC LC<br>
Format/Info : Advanced Audio Codec Low Complexity<br>
Codec ID : mp4a-40-2<br>
Duration : 1 h 56 min<br>
Bit rate mode : Constant<br>
Bit rate : 122 kb/s<br>
Channel(s) : 2 channels<br>
Channel layout : L R<br>
Sampling rate : 44.1 kHz<br>
Frame rate : 43.066 FPS (1024 SPF)<br>
Compression mode : Lossy<br>
Stream size : 102 MiB (6%)<br>
Default : Yes<br>
Alternate group : 1</div>
</div>
<div class="bbCodeBlock bbCodeVfcHH HiddenContent">
<div class="attribution type">Hidden Content:</div>
<blockquote>You must either reply or click 'Like' to see the hidden information contained here.</blockquote>
</div><b><br>
2023-06-03 8 PM (KST):</b><br>
<b>Map of the Soul ON:E </b><br>
<div class="ToggleTriggerAnchor bbCodeSpoilerContainer">
<button type="button" class="button bbCodeSpoilerButton ToggleTrigger Tooltip JsOnly" data-target="> .SpoilerTarget"><span>Spoiler: <span class="SpoilerTitle">MediaInfo</span></span></button>
<div class="SpoilerTarget bbCodeSpoilerText">General<br>
Complete name : E:\Charles' Apps\yt-dlp-gui\2023 Bang Bang Con ~ Map of the Soul [MOTS] ON：E.mp4<br>
Format : MPEG-4<br>
Format profile : Base Media<br>
Codec ID : isom (isom/iso2/avc1/mp41)<br>
File size : 1.83 GiB<br>
Duration : 2 h 31 min<br>
Overall bit rate : 1 724 kb/s<br>
Frame rate : 30.000 FPS<br>
Description : Packed by Bilibili XCoder v2.0.2<br>
Writing application : Lavf59.34.102<br>
<br>
Video<br>
ID : 1<br>
Format : AVC<br>
Format/Info : Advanced Video Codec<br>
Format profile : High@L5<br>
Format settings : CABAC / 6 Ref Frames<br>
Format settings, CABAC : Yes<br>
Format settings, Reference : 6 frames<br>
Codec ID : avc1<br>
Codec ID/Info : Advanced Video Coding<br>
Duration : 2 h 31 min<br>
Bit rate : 1 596 kb/s<br>
Width : 1 920 pixels<br>
Height : 1 078 pixels<br>
Display aspect ratio : 16:9<br>
Frame rate mode : Variable<br>
Frame rate : 30.000 FPS<br>
Minimum frame rate : 29.412 FPS<br>
Maximum frame rate : 30.303 FPS<br>
Color space : YUV<br>
Chroma subsampling : 4:2:0<br>
Bit depth : 8 bits<br>
Scan type : Progressive<br>
Bits/(Pixel*Frame) : 0.026<br>
Stream size : 1.69 GiB (93%)<br>
Color range : Limited<br>
Color primaries : BT.709<br>
Transfer characteristics : BT.709<br>
Matrix coefficients : BT.709<br>
Codec configuration box : avcC<br>
<br>
Audio<br>
ID : 2<br>
Format : AAC LC<br>
Format/Info : Advanced Audio Codec Low Complexity<br>
Codec ID : mp4a-40-2<br>
Duration : 2 h 31 min<br>
Bit rate mode : Constant<br>
Bit rate : 118 kb/s<br>
Channel(s) : 2 channels<br>
Channel layout : L R<br>
Sampling rate : 44.1 kHz<br>
Frame rate : 43.066 FPS (1024 SPF)<br>
Compression mode : Lossy<br>
Stream size : 128 MiB (7%)<br>
Default : Yes<br>
Alternate group : 1</div>
</div>
<div class="bbCodeBlock bbCodeVfcHH HiddenContent">
<div class="attribution type">Hidden Content:</div>
<blockquote>You must either reply or click 'Like' to see the hidden information contained here.</blockquote>
</div>
<div class="bbCodeBlock bbCodeVfcHH HiddenContent">
<div class="attribution type">Hidden Content:</div>
<blockquote>You must either reply or click 'Like' to see the hidden information contained here.</blockquote>
</div>
<div class="messageTextEndMarker">&nbsp;</div>
</blockquote>
</article>]]></description>
                <author><![CDATA[charlescanlom]]></author>
                </item>

                </channel></rss>